<svg width="96" height="96" xmlns="http://www.w3.org/2000/svg" xmlns:xlink="http://www.w3.org/1999/xlink" xml:space="preserve" overflow="hidden"><g transform="translate(-967 -179)"><path d="M1040.06 227C1047.82 219.448 1051.42 212.088 1048.78 207.5 1046.13 202.912 1037.95 202.352 1027.53 205.295 1024.87 194.799 1020.3 188 1015 188 1009.7 188 1005.13 194.799 1002.47 205.295 992.048 202.352 983.874 202.912 981.225 207.5 978.575 212.088 982.178 219.448 989.937 227 982.178 234.552 978.576 241.912 981.225 246.5 982.795 249.219 986.304 250.524 991.072 250.524 994.935 250.43 998.768 249.817 1002.47 248.7 1005.13 259.198 1009.7 266 1015 266 1020.3 266 1024.87 259.198 1027.53 248.7 1031.23 249.817 1035.06 250.43 1038.93 250.524 1043.69 250.524 1047.21 249.219 1048.78 246.5 1051.42 241.912 1047.82 234.552 1040.06 227ZM1039.09 205.436C1043 205.436 1045.84 206.421 1047.04 208.5 1049.2 212.235 1045.65 218.79 1038.59 225.612 1035.78 223.055 1032.79 220.692 1029.66 218.538 1029.36 214.748 1028.8 210.983 1028 207.268 1031.6 206.16 1035.33 205.543 1039.09 205.436ZM1021.5 238.258C1019.33 239.512 1017.15 240.661 1015 241.7 1012.85 240.661 1010.67 239.512 1008.5 238.259 1006.33 237.005 1004.25 235.695 1002.27 234.35 1002.09 231.967 1002 229.508 1002 227 1002 224.492 1002.09 222.033 1002.27 219.65 1004.25 218.306 1006.33 216.995 1008.5 215.742 1010.67 214.488 1012.85 213.34 1015 212.301 1017.15 213.339 1019.33 214.488 1021.5 215.742 1023.67 216.995 1025.75 218.306 1027.73 219.65 1027.91 222.033 1028 224.492 1028 227 1028 229.508 1027.91 231.967 1027.73 234.35 1025.75 235.694 1023.67 237.004 1021.5 238.258ZM1027.5 236.915C1027.19 240.019 1026.71 243.102 1026.06 246.151 1023.09 245.193 1020.17 244.068 1017.33 242.781 1019.04 241.917 1020.77 240.992 1022.5 239.99 1024.23 238.991 1025.9 237.966 1027.5 236.915ZM1012.67 242.781C1009.83 244.068 1006.91 245.193 1003.94 246.151 1003.29 243.102 1002.81 240.019 1002.5 236.915 1004.1 237.963 1005.77 238.988 1007.5 239.991 1009.23 240.992 1010.96 241.917 1012.67 242.781ZM1000.16 232.869C997.629 231.051 995.2 229.092 992.887 227 995.2 224.908 997.629 222.949 1000.16 221.131 1000.06 223.042 1000 224.998 1000 227 1000 228.999 1000.05 230.956 1000.16 232.869ZM1002.5 217.085C1002.81 213.981 1003.29 210.898 1003.94 207.849 1006.91 208.806 1009.82 209.93 1012.66 211.216 1010.96 212.079 1009.23 213.01 1007.5 214.009 1005.77 215.009 1004.1 216.034 1002.5 217.085ZM1017.34 211.216C1020.18 209.932 1023.09 208.81 1026.06 207.855 1026.71 210.902 1027.19 213.984 1027.5 217.085 1025.9 216.037 1024.23 215.012 1022.5 214.009 1020.77 213.01 1019.05 212.079 1017.34 211.216ZM1029.84 221.131C1032.37 222.949 1034.8 224.908 1037.11 227 1034.8 229.092 1032.37 231.051 1029.84 232.869 1029.94 230.958 1030 229.002 1030 227 1030 225.001 1029.95 223.044 1029.84 221.131ZM1015 190C1019.31 190 1023.21 196.354 1025.59 205.877 1021.97 207.036 1018.43 208.439 1015 210.076 1011.57 208.439 1008.03 207.036 1004.41 205.877 1006.79 196.354 1010.69 190 1015 190ZM982.957 208.5C985.114 204.765 992.566 204.564 1002 207.265 1001.2 210.981 1000.64 214.747 1000.34 218.538 997.209 220.692 994.225 223.055 991.41 225.612 984.353 218.79 980.8 212.235 982.957 208.5ZM982.957 245.5C980.8 241.765 984.353 235.21 991.41 228.388 994.225 230.945 997.21 233.308 1000.34 235.462 1000.64 239.253 1001.2 243.019 1002 246.735 992.566 249.436 985.113 249.235 982.957 245.5ZM1015 264C1010.69 264 1006.79 257.645 1004.41 248.12 1008.03 246.961 1011.57 245.557 1015 243.92 1018.43 245.557 1021.97 246.961 1025.59 248.12 1023.21 257.645 1019.31 264 1015 264ZM1047.04 245.5C1044.89 249.235 1037.43 249.436 1028 246.735 1028.8 243.019 1029.36 239.253 1029.66 235.462 1032.79 233.308 1035.78 230.945 1038.59 228.388 1045.65 235.21 1049.2 241.765 1047.04 245.5Z"/><path d="M1015 221C1011.69 221 1009 223.686 1009 227 1009 230.314 1011.69 233 1015 233 1018.31 233 1021 230.314 1021 227 1021 223.688 1018.31 221.004 1015 221ZM1015 231C1012.79 231 1011 229.209 1011 227 1011 224.791 1012.79 223 1015 223 1017.21 223 1019 224.791 1019 227 1019 229.208 1017.21 230.997 1015 231Z"/></g></svg>