<svg width="96" height="96" xmlns="http://www.w3.org/2000/svg" xmlns:xlink="http://www.w3.org/1999/xlink" xml:space="preserve" overflow="hidden"><g transform="translate(-1016 -280)"><path d="M1069.7 328C1069.7 331.314 1067.01 334 1063.7 334 1060.39 334 1057.7 331.314 1057.7 328 1057.7 324.686 1060.39 322 1063.7 322 1067.01 322 1069.7 324.686 1069.7 328Z"/><path d="M1098.9 308C1097.2 305.1 1093.4 303.7 1088.2 303.7 1084.9 303.7 1081.1 304.3 1076.9 305.4 1074 294.9 1069.2 288 1063.7 288 1058.3 288 1053.4 294.8 1050.6 305.2 1046.6 304.2 1043 303.6 1039.8 303.6 1034.6 303.6 1030.8 305 1029.1 307.9 1026.3 312.7 1030 320.4 1037.7 328.2 1030.3 335.8 1026.9 343.2 1029.6 347.9 1031.3 350.8 1035.1 352.2 1040.3 352.2 1043.3 352.2 1046.8 351.7 1050.6 350.8 1053.5 361.2 1058.3 368 1063.7 368 1069.1 368 1074 361.2 1076.8 350.8 1080.8 351.8 1084.4 352.4 1087.6 352.4 1092.8 352.4 1096.6 351 1098.3 348.1 1101 343.4 1097.6 336 1090.2 328.4 1098.1 320.5 1101.7 312.8 1098.9 308ZM1088.2 307.7C1091.9 307.7 1094.6 308.6 1095.4 310 1096.9 312.6 1094.2 318.7 1087.4 325.5 1085 323.3 1082.3 321.1 1079.3 319 1079 315.6 1078.5 312.3 1077.8 309.2 1081.6 308.2 1085.2 307.7 1088.2 307.7ZM1070.3 338.4C1068.2 339.6 1066.1 340.7 1064 341.7 1061.9 340.7 1059.8 339.6 1057.7 338.4 1055.7 337.2 1053.7 336 1051.9 334.8 1051.7 332.6 1051.7 330.4 1051.7 328 1051.7 325.8 1051.8 323.7 1051.9 321.6 1053.9 320.2 1056 318.9 1058.3 317.6 1060.2 316.5 1062.1 315.5 1064 314.6 1065.9 315.5 1067.8 316.5 1069.7 317.6 1071.7 318.8 1073.7 320 1075.5 321.2 1075.7 323.4 1075.7 325.6 1075.7 328 1075.7 330.5 1075.6 332.9 1075.4 335.2 1073.8 336.3 1072.1 337.3 1070.3 338.4ZM1074.9 340.3C1074.6 342.2 1074.3 344.1 1074 345.8 1072.3 345.2 1070.5 344.6 1068.7 343.8 1069.9 343.2 1071.1 342.5 1072.3 341.8 1073.2 341.3 1074.1 340.8 1074.9 340.3ZM1059.3 343.8C1057.3 344.6 1055.4 345.3 1053.5 345.9 1053.1 344 1052.8 342 1052.5 339.9 1053.6 340.6 1054.6 341.2 1055.8 341.9 1056.9 342.5 1058.1 343.2 1059.3 343.8ZM1047.8 331.8C1046.2 330.6 1044.8 329.4 1043.5 328.2 1044.8 327 1046.3 325.8 1047.8 324.6 1047.8 325.7 1047.7 326.8 1047.7 328 1047.7 329.3 1047.7 330.6 1047.8 331.8ZM1052.4 316.5C1052.7 314.3 1053 312.2 1053.4 310.2 1055.3 310.8 1057.3 311.6 1059.3 312.4 1058.3 312.9 1057.2 313.5 1056.2 314.1 1055 314.9 1053.7 315.7 1052.4 316.5ZM1068.6 312.4C1070.4 311.6 1072.2 311 1074 310.4 1074.4 312.2 1074.7 314.1 1075 316.1 1073.9 315.4 1072.9 314.8 1071.7 314.1 1070.7 313.6 1069.7 313 1068.6 312.4ZM1079.6 324.2C1081.4 325.6 1083 326.9 1084.5 328.3 1083 329.6 1081.4 331 1079.6 332.3 1079.7 330.9 1079.7 329.5 1079.7 328.1 1079.7 326.7 1079.7 325.4 1079.6 324.2ZM1063.7 292C1066.7 292 1070.6 297.3 1073.1 306.5 1070.2 307.5 1067.1 308.7 1064 310.1 1060.7 308.6 1057.5 307.3 1054.4 306.3 1056.9 297.2 1060.7 292 1063.7 292ZM1032.5 310C1033.4 308.5 1036 307.7 1039.7 307.7 1042.6 307.7 1045.9 308.2 1049.5 309.1 1048.8 312.3 1048.3 315.8 1048 319.4 1045.2 321.4 1042.7 323.4 1040.5 325.5 1033.8 318.7 1031 312.6 1032.5 310ZM1040.3 348.3C1036.6 348.3 1033.9 347.4 1033.1 346 1031.6 343.4 1034.2 337.6 1040.6 331 1042.9 333 1045.4 335 1048.1 337 1048.4 340.5 1048.9 343.9 1049.6 347 1046.3 347.9 1043.1 348.3 1040.3 348.3ZM1063.7 364C1060.7 364 1056.9 358.8 1054.4 349.8 1057.5 348.8 1060.7 347.6 1064 346.1 1067.1 347.5 1070.1 348.7 1073 349.6 1070.5 358.8 1066.7 364 1063.7 364ZM1094.9 346C1094 347.5 1091.4 348.3 1087.7 348.3 1084.8 348.3 1081.4 347.8 1077.9 346.9 1078.5 343.9 1079 340.8 1079.3 337.4 1082.3 335.3 1085 333.2 1087.4 331 1093.8 337.6 1096.4 343.4 1094.9 346Z"/></g></svg>